<?xml version="1.0" encoding="UTF-8" standalone="no"?>
<svg width="1000px" height="203px" viewBox="0 0 1000 203" version="1.1" xmlns="http://www.w3.org/2000/svg" xmlns:xlink="http://www.w3.org/1999/xlink" xmlns:sketch="http://www.bohemiancoding.com/sketch/ns">
    <!-- Generator: Sketch 3.3.3 (12081) - http://www.bohemiancoding.com/sketch -->
    <title>Slice 1</title>
    <desc>Created with Sketch.</desc>
    <defs></defs>
    <g id="Page-1" stroke="none" stroke-width="1" fill="none" fill-rule="evenodd" sketch:type="MSPage">
        <g id="logo" sketch:type="MSLayerGroup" fill="#ffffff">
            <path d="M0,168 L25.2,152.5 C32.1,164.8 39.2,173.4 55.3,173.4 C70.2,173.4 80.8,166.5 80.8,143.3 L80.8,4 L111.7,4 L111.7,144 C111.7,182.6 88.5,201.2 56.5,201.2 C26.6,201.2 9.4,186.3 0,168 Z M155.3,198.6 L124.4,198.6 L209.7,0 L211.4,0 L297,198.6 L264.7,198.6 L253.5,171.4 L166.5,171.4 L155.3,198.6 Z M210.3,67.3 L178,144.3 L242.1,144.3 C242.4,144.3 210.3,67.3 210.3,67.3 Z M298.5,101.3 C298.5,43.8 342.6,1.4 398.4,1.4 C434.5,1.4 456.2,14.3 472.2,32.3 L451,52.3 C439.3,39.4 425.8,29.1 397.5,29.1 C358,29.1 330.2,60 330.2,101.2 C330.2,142.4 358.2,173.3 402.6,173.3 C423.8,173.3 438.7,168.4 449.8,161 L449.8,139 L397.7,139 L397.7,111.8 L478.1,111.8 L478.1,175.6 C461.8,189.1 439.2,201.1 402.5,201.1 C342.8,201.2 298.5,158.8 298.5,101.3 Z M519.7,4 L538.6,4 L538.6,198.6 L519.7,198.6 L519.7,4 Z M627,20.6 L566.6,20.6 L566.6,4 L705.7,4 L705.7,20.6 L645.6,20.6 L645.6,198.6 L627,198.6 L627,20.6 Z M928.6,5.4 L850.6,190.1 C855.4,192.7 860.4,194.8 865.6,196.5 L944,11.6 C939.1,9.2 934,7 928.6,5.4 Z M958.2,20.2 L882.2,200.7 C887.5,201.6 893,202.1 898.6,202.1 C903.3,202.1 907.9,201.7 912.4,201.1 L980.1,41.9 C974,33.6 966.6,26.3 958.2,20.2 Z M948.5,189.1 C979.2,171.8 1000,139.1 1000,101.6 C1000,92.8 998.7,84.2 996.6,76.1 L948.5,189.1 Z M844,186.1 L921.4,3.5 C914.1,1.8 906.5,0.9 898.7,0.9 C842.7,0.9 797.3,45.9 797.3,101.5 C797.3,137.1 815.9,168.3 844,186.1 Z"></path>
        </g>
    </g>
</svg>